# Smooth Torus .obj (128 vertices, 256 faces)
# Centered at (0, 0, 0) - R_major = 2.0, R_minor = 0.5

# Vertices
v  2.5000  0.0000  0.0000
v  2.3536  0.0000  0.9752
v  1.9319  0.0000  1.6213
v  1.3066  0.0000  1.9319
v  0.5507  0.0000  1.9319
v -0.2821  0.0000  1.6213
v -1.0261  0.0000  0.9752
v -1.5000  0.0000  0.0000
v -1.0261  0.0000 -0.9752
v -0.2821  0.0000 -1.6213
v  0.5507  0.0000 -1.9319
v  1.3066  0.0000 -1.9319
v  1.9319  0.0000 -1.6213
v  2.3536  0.0000 -0.9752

v  2.3536  0.3536  0.0000
v  2.2157  0.3536  0.9180
v  1.8187  0.3536  1.5269
v  1.2301  0.3536  1.8187
v  0.5183  0.3536  1.8187
v -0.2654  0.3536  1.5269
v -0.9659  0.3536  0.9180
v -1.4121  0.3536  0.0000
v -0.9659  0.3536 -0.9180
v -0.2654  0.3536 -1.5269
v  0.5183  0.3536 -1.8187
v  1.2301  0.3536 -1.8187
v  1.8187  0.3536 -1.5269
v  2.2157  0.3536 -0.9180

v  2.0000  0.5000  0.0000
v  1.8828  0.5000  0.7801
v  1.5455  0.5000  1.2970
v  1.0453  0.5000  1.5455
v  0.4406  0.5000  1.5455
v -0.2257  0.5000  1.2970
v -0.8209  0.5000  0.7801
v -1.2000  0.5000  0.0000
v -0.8209  0.5000 -0.7801
v -0.2257  0.5000 -1.2970
v  0.4406  0.5000 -1.5455
v  1.0453  0.5000 -1.5455
v  1.5455  0.5000 -1.2970
v  1.8828  0.5000 -0.7801

v  1.6464  0.3536  0.0000
v  1.5499  0.3536  0.6422
v  1.2723  0.3536  1.0671
v  0.8605  0.3536  1.2723
v  0.3629  0.3536  1.2723
v -0.1859  0.3536  1.0671
v -0.6759  0.3536  0.6422
v -0.9879  0.3536  0.0000
v -0.6759  0.3536 -0.6422
v -0.1859  0.3536 -1.0671
v  0.3629  0.3536 -1.2723
v  0.8605  0.3536 -1.2723
v  1.2723  0.3536 -1.0671
v  1.5499  0.3536 -0.6422

v  1.5000  0.0000  0.0000
v  1.4121  0.0000  0.5851
v  1.1591  0.0000  0.9728
v  0.7840  0.0000  1.1591
v  0.3304  0.0000  1.1591
v -0.1693  0.0000  0.9728
v -0.6157  0.0000  0.5851
v -0.9000  0.0000  0.0000
v -0.6157  0.0000 -0.5851
v -0.1693  0.0000 -0.9728
v  0.3304  0.0000 -1.1591
v  0.7840  0.0000 -1.1591
v  1.1591  0.0000 -0.9728
v  1.4121  0.0000 -0.5851

v  1.6464 -0.3536  0.0000
v  1.5499 -0.3536  0.6422
v  1.2723 -0.3536  1.0671
v  0.8605 -0.3536  1.2723
v  0.3629 -0.3536  1.2723
v -0.1859 -0.3536  1.0671
v -0.6759 -0.3536  0.6422
v -0.9879 -0.3536  0.0000
v -0.6759 -0.3536 -0.6422
v -0.1859 -0.3536 -1.0671
v  0.3629 -0.3536 -1.2723
v  0.8605 -0.3536 -1.2723
v  1.2723 -0.3536 -1.0671
v  1.5499 -0.3536 -0.6422

v  2.0000 -0.5000  0.0000
v  1.8828 -0.5000  0.7801
v  1.5455 -0.5000  1.2970
v  1.0453 -0.5000  1.5455
v  0.4406 -0.5000  1.5455
v -0.2257 -0.5000  1.2970
v -0.8209 -0.5000  0.7801
v -1.2000 -0.5000  0.0000
v -0.8209 -0.5000 -0.7801
v -0.2257 -0.5000 -1.2970
v  0.4406 -0.5000 -1.5455
v  1.0453 -0.5000 -1.5455
v  1.5455 -0.5000 -1.2970
v  1.8828 -0.5000 -0.7801

v  2.3536 -0.3536  0.0000
v  2.2157 -0.3536  0.9180
v  1.8187 -0.3536  1.5269
v  1.2301 -0.3536  1.8187
v  0.5183 -0.3536  1.8187
v -0.2654 -0.3536  1.5269
v -0.9659 -0.3536  0.9180
v -1.4121 -0.3536  0.0000
v -0.9659 -0.3536 -0.9180
v -0.2654 -0.3536 -1.5269
v  0.5183 -0.3536 -1.8187
v  1.2301 -0.3536 -1.8187
v  1.8187 -0.3536 -1.5269
v  2.2157 -0.3536 -0.9180

# Triangular Faces
f 1 2 18
f 1 18 15
f 2 3 19
f 2 19 18
f 3 4 20
f 3 20 19
f 4 5 21
f 4 21 20
f 5 6 22
f 5 22 21
f 6 7 23
f 6 23 22
f 7 8 24
f 7 24 23
f 8 9 25
f 8 25 24
f 9 10 26
f 9 26 25
f 10 11 27
f 10 27 26
f 11 12 28
f 11 28 27
f 12 13 29
f 12 29 28
f 13 14 30
f 13 30 29
f 14 1 15
f 14 15 30

f 15 16 32
f 15 32 29
f 16 17 33
f 16 33 32
f 17 18 34
f 17 34 33
f 18 19 35
f 18 35 34
f 19 20 36
f 19 36 35
f 20 21 37
f 20 37 36
f 21 22 38
f 21 38 37
f 22 23 39
f 22 39 38
f 23 24 40
f 23 40 39
f 24 25 41
f 24 41 40
f 25 26 42
f 25 42 41
f 26 27 43
f 26 43 42
f 27 28 44
f 27 44 43
f 28 15 29
f 28 29 44

f 29 30 46
f 29 46 43
f 30 31 47
f 30 47 46
f 31 32 48
f 31 48 47
f 32 33 49
f 32 49 48
f 33 34 50
f 33 50 49
f 34 35 51
f 34 51 50
f 35 36 52
f 35 52 51
f 36 37 53
f 36 53 52
f 37 38 54
f 37 54 53
f 38 39 55
f 38 55 54
f 39 40 56
f 39 56 55
f 40 41 57
f 40 57 56
f 41 42 58
f 41 58 57
f 42 29 43
f 42 43 58

f 43 44 60
f 43 60 57
f 44 45 61
f 44 61 60
f 45 46 62
f 45 62 61
f 46 47 63
f 46 63 62
f 47 48 64
f 47 64 63
f 48 49 65
f 48 65 64
f 49 50 66
f 49 66 65
f 50 51 67
f 50 67 66
f 51 52 68
f 51 68 67
f 52 53 69
f 52 69 68
f 53 54 70
f 53 70 69
f 54 55 71
f 54 71 70
f 55 56 72
f 55 72 71
f 56 43 57
f 56 57 72

f 57 58 74
f 57 74 71
f 58 59 75
f 58 75 74
f 59 60 76
f 59 76 75
f 60 61 77
f 60 77 76
f 61 62 78
f 61 78 77
f 62 63 79
f 62 79 78
f 63 64 80
f 63 80 79
f 64 65 81
f 64 81 80
f 65 66 82
f 65 82 81
f 66 67 83
f 66 83 82
f 67 68 84
f 67 84 83
f 68 69 85
f 68 85 84
f 69 70 86
f 69 86 85
f 70 57 71
f 70 71 86

f 71 72 88
f 71 88 85
f 72 73 89
f 72 89 88
f 73 74 90
f 73 90 89
f 74 75 91
f 74 91 90
f 75 76 92
f 75 92 91
f 76 77 93
f 76 93 92
f 77 78 94
f 77 94 93
f 78 79 95
f 78 95 94
f 79 80 96
f 79 96 95
f 80 81 97
f 80 97 96
f 81 82 98
f 81 98 97
f 82 83 99
f 82 99 98
f 83 84 100
f 83 100 99
f 84 71 85
f 84 85 100

f 85 86 102
f 85 102 99
f 86 87 103
f 86 103 102
f 87 88 104
f 87 104 103
f 88 89 105
f 88 105 104
f 89 90 106
f 89 106 105
f 90 91 107
f 90 107 106
f 91 92 108
f 91 108 107
f 92 93 109
f 92 109 108
f 93 94 110
f 93 110 109
f 94 95 111
f 94 111 110
f 95 96 112
f 95 112 111
f 96 97 113
f 96 113 112
f 97 98 114
f 97 114 113
f 98 85 99
f 98 99 114

f 99 100 2
f 99 2 113
f 100 101 3
f 100 3 2
f 101 102 4
f 101 4 3
f 102 103 5
f 102 5 4
f 103 104 6
f 103 6 5
f 104 105 7
f 104 7 6
f 105 106 8
f 105 8 7
f 106 107 9
f 106 9 8
f 107 108 10
f 107 10 9
f 108 109 11
f 108 11 10
f 109 110 12
f 109 12 11
f 110 111 13
f 110 13 12
f 111 112 14
f 111 14 13
f 112 99 1
f 112 1 14